<svg version="1" xmlns="http://www.w3.org/2000/svg" width="2730.667" height="2730.667" viewBox="0 0 2048.000000 2048.000000"><path d="M491.5.7c-93.7 4-182.4 32.5-260.5 83.8-30.6 20-52.8 38.2-80.5 66C108 192.9 79 233.4 52.4 287.3 24.2 344.5 8.1 403 1.8 471.5-.1 492.2-.1 1555.7 1.8 1577c6.2 68.5 22.8 128.2 52.3 187.3 39.1 78.3 98.1 146 169.9 194.6 74.7 50.6 155.1 79 247 87.3 21.4 1.9 1084.6 1.9 1106 0 122.8-11.1 230.5-60.2 316.7-144.6 81.7-79.8 133.6-182.7 149.2-295.6 4.8-34.9 4.6-10 4.6-582s.2-547.1-4.6-582c-13.5-97.4-54.3-188.1-118.7-263.5-11-12.9-41.8-43.7-54.7-54.7-23.1-19.7-53.7-41.3-78.8-55.8-17.6-10-47.8-24.5-66.6-31.9-47-18.4-86.4-27.7-145.1-34.3-7.9-.8-145.1-1.2-545.5-1.3-294.2-.1-538.1 0-542 .2zM1091 425c62.4 2 110.9 9.3 158.5 23.6 107.5 32.5 187 100.2 226.5 192.9 22.8 53.5 33.1 113.1 31.7 183-.8 39.2-4.3 66.9-12.7 101-16.7 67.9-49.1 125.8-99.5 177.4-74.2 76.1-171.6 119.3-295.1 130.6-27.5 2.5-68.7 3.5-155.1 3.5H862v494H710V424h176.3c96.9 0 189 .5 204.7 1z"/><path d="M862 830.5V1099h88.8c87.6 0 109.4-.6 136.6-3.5 88.9-9.7 156.7-41 201.4-93 32.7-38.1 51.4-83.7 57.7-141 5.5-49.8.8-101.2-13.1-142.5-27.9-83-95.7-133.4-202.4-150.4-35.8-5.7-57.8-6.6-171.2-6.6H862v268.5z"/></svg>